<?xml version="1.0" encoding="utf-8"?>
<!-- Generator: Adobe Illustrator 18.1.1, SVG Export Plug-In . SVG Version: 6.00 Build 0)  -->
<!DOCTYPE svg PUBLIC "-//W3C//DTD SVG 1.1//EN" "http://www.w3.org/Graphics/SVG/1.1/DTD/svg11.dtd">
<svg version="1.1" id="Layer_1" xmlns="http://www.w3.org/2000/svg" xmlns:xlink="http://www.w3.org/1999/xlink" x="0px" y="0px"
	 width="127.6px" height="127.7px" viewBox="0 0 127.6 127.7" enable-background="new 0 0 127.6 127.7" xml:space="preserve">
<g>
	<path d="M58.2,125.4c1.5,1.5,3.4,2.3,5.4,2.3c2.1,0,4-0.8,5.8-2.3l55.8-56c1.5-1.5,2.3-3.4,2.3-5.6c0-2.2-0.7-4.1-2.3-5.6l-55.8-56
		C67.9,0.8,66.1,0,63.8,0c-2.2,0-4.1,0.8-5.6,2.3l-8.4,8.5c-1.5,1.5-2.3,3.3-2.4,5.5c0,2.1,30.4,33.8,30.4,33.8h-70
		c-2.2,0-4.1,0.7-5.6,2.2C0.8,53.7,0,55.6,0,57.8v11.9c0,2.2,0.8,4.1,2.4,5.7c1.6,1.6,3.4,2.3,5.5,2.3h70l-28.1,28.1
		c-1.5,1.5-2.3,3.4-2.4,5.5c0,2.2,0.7,4.1,2.4,5.6L58.2,125.4L58.2,125.4z"/>
</g>
</svg>
