<?xml version="1.0" encoding="utf-8"?>
<!-- Generator: Adobe Illustrator 18.1.1, SVG Export Plug-In . SVG Version: 6.00 Build 0)  -->
<!DOCTYPE svg PUBLIC "-//W3C//DTD SVG 1.1//EN" "http://www.w3.org/Graphics/SVG/1.1/DTD/svg11.dtd">
<svg version="1.1" id="Layer_1" xmlns="http://www.w3.org/2000/svg" xmlns:xlink="http://www.w3.org/1999/xlink" x="0px" y="0px"
	 width="147.5px" height="132.7px" viewBox="0 0 147.5 132.7" enable-background="new 0 0 147.5 132.7" xml:space="preserve">
<path d="M143.2,98.7h-14.1V22.6C129.1,10.1,119,0,106.5,0H22.6C10.1,0,0,10.1,0,22.6v10.6c0,2.3,1.9,4.2,4.2,4.2h32.5V110
	c0,12.3,9.9,22.4,22.2,22.6c0.1,0,0.1,0,0.2,0h65.7c12.5,0,22.6-10.1,22.6-22.6V103C147.5,100.6,145.6,98.7,143.2,98.7z M8.5,22.6
	c0-7.8,6.3-14.1,14.1-14.1c7.8,0,14.1,6.3,14.1,14.1V29H8.5V22.6z M73.5,103v7.1c0,7.8-6.3,14.1-14.1,14.1
	c-7.8,0-14.1-6.3-14.1-14.1V33.2v-2.3v-8.3c0-5.3-1.9-10.3-5-14.1h66.2c7.8,0,14.1,6.3,14.1,14.1v76.1H77.7
	C75.4,98.7,73.5,100.6,73.5,103z M139,110c0,7.8-6.3,14.1-14.1,14.1H77c3.1-3.9,5-8.8,5-14.1v-2.8h57L139,110L139,110z"/>
</svg>
