<?xml version="1.0" encoding="utf-8"?>
<!-- Generator: Adobe Illustrator 18.1.0, SVG Export Plug-In . SVG Version: 6.00 Build 0)  -->
<!DOCTYPE svg PUBLIC "-//W3C//DTD SVG 1.1//EN" "http://www.w3.org/Graphics/SVG/1.1/DTD/svg11.dtd">
<svg version="1.1" xmlns="http://www.w3.org/2000/svg" xmlns:xlink="http://www.w3.org/1999/xlink" x="0px" y="0px" width="24px"
	 height="24px" viewBox="0 0 24 24" enable-background="new 0 0 24 24" xml:space="preserve">
<g id="Layer_1">
	<g>
		<path fill="#333333" d="M14.7,16.5H1.6c-0.3,0-0.5-0.2-0.5-0.5V5.3c0-0.3,0.2-0.5,0.5-0.5h19c0.3,0,0.5,0.2,0.5,0.5v4.4
			c0,0.3-0.2,0.5-0.5,0.5s-0.5-0.2-0.5-0.5V5.8h-18v9.7h12.6c0.3,0,0.5,0.2,0.5,0.5S14.9,16.5,14.7,16.5z"/>
	</g>
	<g>
		<g>
			<g>
				<g>
					<path fill="#333333" d="M11.2,7.5c0.4,0,0.7,0.1,1,0.2c0.3,0.2,0.6,0.4,0.9,0.7c0.3,0.3,0.5,0.6,0.6,1c0.2,0.4,0.2,0.8,0.2,1.3
						c0,0.5-0.1,0.9-0.2,1.3c-0.2,0.4-0.4,0.8-0.6,1c-0.3,0.3-0.5,0.5-0.9,0.7c-0.3,0.2-0.7,0.2-1,0.2c-0.4,0-0.7-0.1-1-0.2
						c-0.3-0.2-0.6-0.4-0.9-0.7c-0.3-0.3-0.5-0.6-0.6-1c-0.2-0.4-0.2-0.8-0.2-1.3c0-0.5,0.1-0.9,0.2-1.3c0.1-0.4,0.4-0.7,0.6-1
						c0.3-0.3,0.5-0.5,0.9-0.7C10.5,7.5,10.9,7.5,11.2,7.5 M11.2,7c-0.5,0-0.9,0.1-1.3,0.3C9.5,7.5,9.2,7.7,8.9,8
						C8.6,8.4,8.3,8.8,8.2,9.2C8,9.7,7.9,10.2,7.9,10.7c0,0.5,0.1,1,0.3,1.5c0.2,0.5,0.4,0.8,0.7,1.2c0.3,0.3,0.7,0.6,1.1,0.8
						c0.4,0.2,0.8,0.3,1.3,0.3c0.5,0,0.9-0.1,1.3-0.3c0.4-0.2,0.8-0.5,1.1-0.8c0.3-0.3,0.5-0.7,0.7-1.2c0.2-0.5,0.3-0.9,0.3-1.5
						c0-0.5-0.1-1-0.3-1.5c-0.2-0.5-0.4-0.8-0.7-1.2c-0.3-0.3-0.7-0.6-1.1-0.8C12.1,7.1,11.7,7,11.2,7L11.2,7z"/>
					<path fill="#333333" d="M11.2,14.5c-0.5,0-0.9-0.1-1.4-0.3c-0.4-0.2-0.8-0.5-1.1-0.8c-0.3-0.3-0.6-0.8-0.7-1.2
						c-0.2-0.5-0.3-1-0.3-1.5c0-0.5,0.1-1,0.3-1.5C8.2,8.7,8.5,8.3,8.8,8c0.3-0.3,0.7-0.6,1.1-0.8c0.8-0.4,1.9-0.4,2.7,0
						C13,7.3,13.4,7.6,13.7,8c0.3,0.3,0.6,0.8,0.7,1.2c0.2,0.5,0.3,1,0.3,1.5c0,0.5-0.1,1-0.3,1.5c-0.2,0.5-0.4,0.9-0.7,1.2
						c-0.3,0.3-0.7,0.6-1.1,0.8C12.2,14.4,11.7,14.5,11.2,14.5z M11.2,7.1c-0.4,0-0.9,0.1-1.2,0.3C9.6,7.6,9.3,7.8,9,8.1
						C8.7,8.5,8.5,8.8,8.3,9.3C8.1,9.7,8,10.2,8,10.7c0,0.5,0.1,1,0.2,1.4c0.2,0.4,0.4,0.8,0.7,1.1c0.3,0.3,0.6,0.6,1,0.8
						c0.8,0.4,1.7,0.4,2.5,0c0.4-0.2,0.7-0.4,1-0.8c0.3-0.3,0.5-0.7,0.7-1.1c0.2-0.4,0.3-0.9,0.3-1.4c0-0.5-0.1-1-0.3-1.4
						c-0.2-0.4-0.4-0.8-0.7-1.1c-0.3-0.3-0.6-0.6-1-0.8C12.1,7.2,11.7,7.1,11.2,7.1z M11.2,14c-0.4,0-0.7-0.1-1.1-0.2
						c-0.4-0.2-0.7-0.4-0.9-0.7C9,12.8,8.8,12.4,8.6,12c-0.2-0.4-0.2-0.9-0.2-1.3s0.1-0.9,0.2-1.3C8.8,8.9,9,8.6,9.2,8.3
						C9.5,8,9.8,7.7,10.2,7.6c0.3-0.2,0.7-0.2,1.1-0.2c0.4,0,0.7,0.1,1.1,0.2C12.7,7.7,13,8,13.2,8.3c0.3,0.3,0.5,0.7,0.7,1.1
						c0.2,0.4,0.2,0.9,0.2,1.3c0,0.5-0.1,0.9-0.2,1.3c-0.2,0.4-0.4,0.8-0.7,1.1c-0.3,0.3-0.6,0.5-0.9,0.7C12,14,11.6,14,11.2,14z
						 M11.2,7.6c-0.3,0-0.7,0.1-1,0.2C10,8,9.7,8.2,9.4,8.4C9.2,8.7,9,9,8.8,9.4c-0.1,0.4-0.2,0.8-0.2,1.3s0.1,0.9,0.2,1.3
						c0.1,0.4,0.3,0.7,0.6,1c0.2,0.3,0.5,0.5,0.8,0.6c0.3,0.1,0.6,0.2,1,0.2c0.3,0,0.7-0.1,1-0.2c0.3-0.2,0.6-0.4,0.8-0.6
						c0.2-0.3,0.5-0.6,0.6-1c0.2-0.4,0.2-0.8,0.2-1.2c0-0.4-0.1-0.9-0.2-1.2c-0.2-0.4-0.4-0.7-0.6-1c-0.2-0.3-0.5-0.5-0.8-0.6
						C11.9,7.7,11.6,7.6,11.2,7.6z"/>
				</g>
			</g>
			<g>
				<g>
					<g>
						<path fill="#333333" d="M22.7,12.2v0.5c0,0.6-1.5,1.1-3.3,1.1s-3.3-0.5-3.3-1.1v-0.5c0-0.6,1.5-1.1,3.3-1.1
							S22.7,11.6,22.7,12.2z M22.7,13.7v0.7c0,0.6-1.5,1.1-3.3,1.1s-3.3-0.5-3.3-1.1v-0.7c0.7,0.5,2,0.7,3.3,0.7
							C20.7,14.4,22,14.2,22.7,13.7z M22.7,15.3v0.7c0,0.6-1.5,1.1-3.3,1.1s-3.3-0.5-3.3-1.1v-0.7c0.7,0.5,2,0.7,3.3,0.7
							C20.7,16.1,22,15.8,22.7,15.3z M22.7,17v0.7c0,0.6-1.5,1.1-3.3,1.1s-3.3-0.5-3.3-1.1V17c0.7,0.5,2,0.7,3.3,0.7
							C20.7,17.7,22,17.5,22.7,17z"/>
					</g>
				</g>
			</g>
			<g>
				<g>
					<path fill="#333333" d="M20.4,9.1c-2,0-3.6-1.6-3.6-3.6h0.8c0,1.6,1.3,2.8,2.8,2.8V9.1z"/>
				</g>
			</g>
		</g>
		<g>
			<g>
				<path fill="#333333" d="M1.7,9.1V8.4c1.6,0,2.8-1.3,2.8-2.8h0.8C5.3,7.5,3.7,9.1,1.7,9.1z"/>
			</g>
		</g>
		<g>
			<g>
				<path fill="#333333" d="M5.3,15.8H4.5c0-1.6-1.3-2.8-2.8-2.8v-0.8C3.7,12.2,5.3,13.8,5.3,15.8z"/>
			</g>
		</g>
	</g>
	<g>
		<path fill="#333333" d="M9.8,12.2l0.5-0.6c0.3,0.3,0.6,0.4,0.9,0.4c0.4,0,0.7-0.2,0.7-0.5v0c0-0.3-0.3-0.5-0.7-0.5
			c-0.2,0-0.5,0.1-0.7,0.1L10,10.8l0.1-1.9h2.4v0.8h-1.7l0,0.7c0.2,0,0.3-0.1,0.5-0.1c0.8,0,1.4,0.4,1.4,1.3v0
			c0,0.8-0.6,1.4-1.5,1.4C10.6,12.8,10.1,12.6,9.8,12.2z"/>
	</g>
</g>
<g id="Layer_2" display="none">
</g>
</svg>
