<?xml version="1.0" encoding="utf-8"?>
<!-- Generator: Adobe Illustrator 18.1.0, SVG Export Plug-In . SVG Version: 6.00 Build 0)  -->
<!DOCTYPE svg PUBLIC "-//W3C//DTD SVG 1.1//EN" "http://www.w3.org/Graphics/SVG/1.1/DTD/svg11.dtd">
<svg version="1.1" xmlns="http://www.w3.org/2000/svg" xmlns:xlink="http://www.w3.org/1999/xlink" x="0px" y="0px" width="24px"
	 height="24px" viewBox="0 0 24 24" enable-background="new 0 0 24 24" xml:space="preserve">
<g id="Layer_1">
	<g>
		<g>
			<g>
				<g>
					<path fill="#333333" d="M6.7,21.9C6.7,21.9,6.6,21.9,6.7,21.9c-0.2,0-0.4-0.2-0.3-0.4L9,2.9c0-0.2,0.2-0.3,0.4-0.3
						c0.2,0,0.3,0.2,0.3,0.4L7,21.6C7,21.7,6.8,21.9,6.7,21.9z"/>
				</g>
			</g>
			<g>
				<g>
					<path fill="#333333" d="M8.6,7.1H1.2C1.1,7.1,1,7,0.9,6.9C0.9,6.7,0.9,6.6,1,6.5l4.4-3.9c0,0,0,0,0,0c0,0,0,0,0,0l0,0
						c0,0,0,0,0,0c0,0,0,0,0,0s0,0,0,0c0.1,0,0.1-0.1,0.2-0.1h6.2c0.2,0,0.3,0.2,0.3,0.3s-0.2,0.3-0.3,0.3H6.3l2.5,3.4
						c0.1,0.1,0.1,0.2,0,0.4C8.8,7,8.7,7.1,8.6,7.1z M2.2,6.4h5.7L5.6,3.3L2.2,6.4z"/>
				</g>
			</g>
			<g>
				<g>
					<path fill="#333333" d="M22.3,7.1h-7.3c-0.1,0-0.3-0.1-0.3-0.2c-0.1-0.1,0-0.3,0-0.4l2.5-3.4h-5.5c-0.2,0-0.3-0.2-0.3-0.3
						s0.2-0.3,0.3-0.3h6.2c0.1,0,0.1,0,0.2,0.1c0,0,0,0,0,0c0,0,0,0,0,0l4.4,3.9c0.1,0.1,0.1,0.2,0.1,0.4C22.6,7,22.4,7.1,22.3,7.1z
						 M15.6,6.4h5.7l-3.4-3.1L15.6,6.4z"/>
				</g>
			</g>
			<g>
				<g>
					<path fill="#333333" d="M15,8.2c-0.2,0-0.3-0.1-0.3-0.3L14,3c0-0.2,0.1-0.4,0.3-0.4c0.2,0,0.4,0.1,0.4,0.3l0.7,4.9
						C15.4,8,15.2,8.1,15,8.2C15,8.2,15,8.2,15,8.2z"/>
				</g>
			</g>
			<g>
				<g>
					<path fill="#333333" d="M17,21.9c-0.2,0-0.3-0.1-0.3-0.3l-0.3-1.6c0-0.2,0.1-0.4,0.3-0.4c0.2,0,0.4,0.1,0.4,0.3l0.3,1.6
						C17.3,21.7,17.2,21.8,17,21.9C17,21.9,17,21.9,17,21.9z"/>
				</g>
			</g>
			<g>
				<g>
					<path fill="#333333" d="M13.5,8.8c-0.1,0-0.2,0-0.2-0.1L9,4.7C8.9,4.5,8.9,4.3,9,4.2C9.1,4,9.3,4,9.5,4.2l4.2,4
						c0.1,0.1,0.1,0.4,0,0.5C13.7,8.7,13.6,8.8,13.5,8.8z"/>
				</g>
			</g>
			<g>
				<g>
					<path fill="#333333" d="M8.3,10.3c-0.1,0-0.2,0-0.3-0.1c-0.1-0.1-0.1-0.4,0-0.5l6-5.5c0.1-0.1,0.4-0.1,0.5,0
						c0.1,0.1,0.1,0.4,0,0.5l-6,5.5C8.5,10.3,8.4,10.3,8.3,10.3z"/>
				</g>
			</g>
			<g>
				<g>
					<path fill="#333333" d="M12.7,15.9c-0.1,0-0.2,0-0.2-0.1l-4.5-4.2c-0.1-0.1-0.1-0.4,0-0.5C8,11,8.3,11,8.4,11.1l4.5,4.2
						c0.1,0.1,0.1,0.4,0,0.5C12.9,15.9,12.8,15.9,12.7,15.9z"/>
				</g>
			</g>
			<g>
				<g>
					<path fill="#333333" d="M7,19.7c-0.1,0-0.2,0-0.3-0.1c-0.1-0.1-0.1-0.4,0-0.5l5.6-5.3c0.1-0.1,0.4-0.1,0.5,0
						c0.1,0.1,0.1,0.4,0,0.5l-5.6,5.3C7.2,19.7,7.1,19.7,7,19.7z"/>
				</g>
			</g>
		</g>
		<g>
			<g>
				<polygon fill="#333333" points="14.7,9.2 17.7,9.2 16.1,13.7 19.3,13.3 14.2,21.9 14.1,21.9 15.3,16.2 13.6,16.3 				"/>
			</g>
			<g>
				<path fill="#333333" d="M14.1,22C14,22,14,22,14,22c0,0,0-0.1,0-0.1l1.1-5.4l-1.5,0c0,0-0.1,0-0.1-0.1c0,0,0-0.1,0-0.1l1.2-7
					c0-0.1,0.1-0.1,0.2-0.1l3,0c0.1,0,0.1,0,0.1,0.1c0,0,0,0.1,0,0.2l-1.5,4.2l2.9-0.3c0.1,0,0.1,0,0.2,0.1c0,0.1,0,0.1,0,0.2
					l-5,8.6c0,0.1-0.1,0.1-0.1,0.1L14.1,22C14.1,22,14.1,22,14.1,22z M15.3,16.1c0.1,0,0.1,0,0.1,0.1c0,0,0,0.1,0,0.1l-1,5l4.5-7.7
					l-2.8,0.3c-0.1,0-0.1,0-0.2-0.1c0,0,0-0.1,0-0.2l1.6-4.2l-2.6,0l-1.1,6.7L15.3,16.1C15.3,16.1,15.3,16.1,15.3,16.1z"/>
			</g>
		</g>
	</g>
</g>
<g id="Layer_2" display="none">
</g>
</svg>
