<?xml version="1.0" encoding="utf-8"?>
<!-- Generator: Adobe Illustrator 18.1.0, SVG Export Plug-In . SVG Version: 6.00 Build 0)  -->
<!DOCTYPE svg PUBLIC "-//W3C//DTD SVG 1.1//EN" "http://www.w3.org/Graphics/SVG/1.1/DTD/svg11.dtd">
<svg version="1.1" xmlns="http://www.w3.org/2000/svg" xmlns:xlink="http://www.w3.org/1999/xlink" x="0px" y="0px" width="24px"
	 height="24px" viewBox="0 0 24 24" enable-background="new 0 0 24 24" xml:space="preserve">
<g id="Layer_1">
	<g>
		<path fill="#282828" d="M11.8,21.5h-0.5c0,0-0.1,0-0.1,0c-2.4-0.7-4-2.1-4.7-4.1c-2-5.8,4.2-14.8,4.5-15.2l0.3-0.4
			c0.1-0.1,0.2-0.2,0.4-0.2c0.2,0,0.3,0.1,0.4,0.2c0.1,0.1,2,3.1,3.4,6.4c0.1,0.3,0,0.5-0.3,0.7c-0.3,0.1-0.5,0-0.7-0.3
			c-1-2.3-2.3-4.5-2.9-5.6C10.7,4.3,5.7,12.1,7.4,17c0.6,1.7,1.9,2.8,4,3.5h0.3c1.6-0.5,2.7-1.2,3.4-2.3c0.2-0.2,0.5-0.3,0.7-0.1
			c0.2,0.2,0.3,0.5,0.1,0.7c-0.9,1.3-2.2,2.2-4,2.7C11.9,21.5,11.8,21.5,11.8,21.5z"/>
	</g>
	<g>
		<path fill="#282828" d="M11.5,22.6c-0.3,0-0.5-0.2-0.5-0.5V2.4c0-0.3,0.2-0.5,0.5-0.5S12,2.1,12,2.4v19.7
			C12,22.4,11.8,22.6,11.5,22.6z"/>
	</g>
	<g>
		<path fill="#282828" d="M11.4,17.8c-0.1,0-0.3-0.1-0.4-0.2l-2.7-3.4c-0.2-0.2-0.1-0.5,0.1-0.7c0.2-0.2,0.5-0.1,0.7,0.1l2.7,3.4
			c0.2,0.2,0.1,0.5-0.1,0.7C11.6,17.8,11.5,17.8,11.4,17.8z"/>
	</g>
	<g>
		<path fill="#282828" d="M11.4,14.8c-0.1,0-0.3-0.1-0.4-0.2l-2.7-3.4c-0.2-0.2-0.1-0.5,0.1-0.7c0.2-0.2,0.5-0.1,0.7,0.1l2.7,3.4
			c0.2,0.2,0.1,0.5-0.1,0.7C11.6,14.8,11.5,14.8,11.4,14.8z"/>
	</g>
	<g>
		<path fill="#333333" d="M19.7,12.2c0.2,0.3,0.3,0.5,0.4,0.8c0.1,0.3,0.1,0.6,0.1,0.9c0,0.5-0.1,0.9-0.3,1.3
			c-0.2,0.4-0.4,0.7-0.7,1c-0.3,0.3-0.6,0.5-1,0.7c-0.4,0.2-0.8,0.3-1.3,0.3c-0.5,0-0.9-0.1-1.3-0.3c-0.4-0.2-0.7-0.4-1-0.7
			c-0.3-0.3-0.5-0.6-0.7-1c-0.2-0.4-0.3-0.8-0.3-1.3c0-0.3,0-0.6,0.1-0.9c0.1-0.3,0.2-0.6,0.4-0.8c0.1-0.1,0.2-0.3,0.4-0.6
			c0.2-0.3,0.4-0.6,0.6-0.9c0.2-0.3,0.4-0.7,0.7-1.1c0.2-0.4,0.4-0.8,0.5-1.3c0-0.1,0.1-0.2,0.2-0.3C16.7,8,16.8,8,16.9,8
			c0.1,0,0.2,0,0.3,0.1c0.1,0.1,0.2,0.2,0.2,0.3c0.1,0.4,0.3,0.9,0.5,1.3c0.2,0.4,0.4,0.8,0.7,1.1c0.2,0.3,0.4,0.6,0.6,0.9
			C19.5,11.9,19.6,12.1,19.7,12.2z M15.9,15.5c0.2,0,0.4-0.1,0.6-0.2c0.2-0.2,0.2-0.4,0.2-0.6c0-0.2,0-0.3-0.1-0.4
			c0,0-0.1-0.1-0.1-0.1c0-0.1-0.1-0.1-0.2-0.2c-0.1-0.1-0.1-0.2-0.2-0.3c-0.1-0.1-0.1-0.2-0.1-0.3c0-0.1-0.1-0.1-0.1-0.1
			c-0.1,0-0.1,0-0.1,0.1c0,0.1-0.1,0.2-0.1,0.3c-0.1,0.1-0.1,0.2-0.2,0.3c-0.1,0.1-0.1,0.2-0.2,0.2c0,0.1-0.1,0.1-0.1,0.1
			c-0.1,0.1-0.1,0.3-0.1,0.4c0,0.2,0.1,0.4,0.2,0.6C15.5,15.4,15.7,15.5,15.9,15.5z"/>
	</g>
</g>
<g id="Layer_2" display="none">
</g>
</svg>
