<?xml version="1.0" encoding="utf-8"?>
<!-- Generator: Adobe Illustrator 18.1.0, SVG Export Plug-In . SVG Version: 6.00 Build 0)  -->
<!DOCTYPE svg PUBLIC "-//W3C//DTD SVG 1.1//EN" "http://www.w3.org/Graphics/SVG/1.1/DTD/svg11.dtd">
<svg version="1.1" xmlns="http://www.w3.org/2000/svg" xmlns:xlink="http://www.w3.org/1999/xlink" x="0px" y="0px" width="24px"
	 height="24px" viewBox="0 0 24 24" enable-background="new 0 0 24 24" xml:space="preserve">
<g id="Layer_1">
	<g>
		<g>
			<path fill="#333333" d="M20.2,7.4H4.7c-0.3,0-0.5-0.2-0.5-0.5s0.2-0.5,0.5-0.5h15.5c0.3,0,0.5,0.2,0.5,0.5S20.5,7.4,20.2,7.4z"/>
		</g>
		<g>
			<path fill="#333333" d="M12.2,7.3c-0.3,0-0.5-0.2-0.5-0.5V4.7c0-0.3,0.2-0.5,0.5-0.5s0.5,0.2,0.5,0.5v2.1
				C12.7,7,12.4,7.3,12.2,7.3z"/>
		</g>
		<g>
			<g>
				<path fill="#333333" d="M10.7,16.6c0,0-0.1,0-0.1,0c-0.1,0-0.5,0-1.9,0c-2.2,0-5.5,0-5.5,0c-0.2,0-0.3-0.1-0.4-0.2
					s-0.1-0.3,0-0.5l3.7-8.8c-0.1-0.1,0-0.3,0.1-0.4c0.1-0.1,0.2-0.2,0.4-0.2H7c0.2,0,0.3,0.1,0.4,0.2c0.1,0.1,0.1,0.3,0.1,0.4
					l3.6,8.7c0.1,0.1,0.1,0.2,0.1,0.3C11.2,16.4,11,16.6,10.7,16.6C10.7,16.6,10.7,16.6,10.7,16.6z M7,8.4l-3,7.2c1.5,0,4.8,0,6,0
					L7,8.4z"/>
			</g>
			<g>
				<path fill="#333333" d="M7,19.4c-2.3,0-4.2-1.5-4.2-3.3c0-0.3,0.2-0.5,0.5-0.5s0.5,0.2,0.5,0.5c0,1.3,1.4,2.3,3.2,2.3
					c1.8,0,3.2-1,3.2-2.3c0-0.3,0.2-0.5,0.5-0.5s0.5,0.2,0.5,0.5C11.2,17.9,9.3,19.4,7,19.4z"/>
			</g>
		</g>
		<g>
			<g>
				<path fill="#333333" d="M21.1,16.6c0,0-0.1,0-0.1,0c-0.1,0-0.5,0-1.9,0c-2.2,0-5.5,0-5.5,0c-0.2,0-0.3-0.1-0.4-0.2
					c-0.1-0.1-0.1-0.3,0-0.5l3.7-8.8c-0.1-0.1,0-0.3,0.1-0.4c0.1-0.1,0.2-0.2,0.4-0.2h0.1c0.2,0,0.3,0.1,0.4,0.2
					c0.1,0.1,0.1,0.3,0.1,0.4l3.6,8.7c0.1,0.1,0.1,0.2,0.1,0.3C21.6,16.4,21.4,16.6,21.1,16.6C21.1,16.6,21.1,16.6,21.1,16.6z
					 M17.4,8.4l-3,7.2c1.5,0,4.8,0,6,0L17.4,8.4z"/>
			</g>
			<g>
				<path fill="#333333" d="M17.4,19.4c-2.3,0-4.2-1.5-4.2-3.3c0-0.3,0.2-0.5,0.5-0.5s0.5,0.2,0.5,0.5c0,1.3,1.4,2.3,3.2,2.3
					c1.8,0,3.2-1,3.2-2.3c0-0.3,0.2-0.5,0.5-0.5s0.5,0.2,0.5,0.5C21.6,17.9,19.7,19.4,17.4,19.4z"/>
			</g>
		</g>
	</g>
	<g>
		<polygon fill="#333333" points="3.2,16 10.8,15.9 9.7,18.1 6.6,18.7 3.6,17.4 		"/>
	</g>
</g>
<g id="Layer_2" display="none">
</g>
</svg>
