<?xml version="1.0" encoding="utf-8"?>
<!-- Generator: Adobe Illustrator 18.1.0, SVG Export Plug-In . SVG Version: 6.00 Build 0)  -->
<!DOCTYPE svg PUBLIC "-//W3C//DTD SVG 1.1//EN" "http://www.w3.org/Graphics/SVG/1.1/DTD/svg11.dtd">
<svg version="1.1" xmlns="http://www.w3.org/2000/svg" xmlns:xlink="http://www.w3.org/1999/xlink" x="0px" y="0px" width="24px"
	 height="24px" viewBox="0 0 24 24" enable-background="new 0 0 24 24" xml:space="preserve">
<g id="Layer_1">
	<g>
		<path fill="#333333" d="M12,20c-0.3,0-0.6-0.1-0.9-0.3l-5.8-5.8c-0.3-0.3-0.6-0.6-0.9-1c-0.3-0.4-0.5-0.7-0.7-1.1
			c-0.2-0.4-0.4-0.8-0.5-1.3c-0.1-0.4-0.2-0.9-0.2-1.4c0-0.8,0.1-1.5,0.3-2.1c0.2-0.6,0.6-1.2,1-1.6c0.4-0.4,1-0.8,1.6-1
			C7,4,8.2,3.8,9.4,4.2c0.4,0.1,0.8,0.3,1.1,0.5c0.3,0.2,0.7,0.4,1,0.7c0.2,0.1,0.3,0.3,0.5,0.4c0.2-0.1,0.3-0.3,0.5-0.4
			c0.3-0.3,0.7-0.5,1-0.7c0.4-0.2,0.7-0.4,1.1-0.5C15.8,3.8,17,4,18,4.4c0.6,0.2,1.2,0.6,1.6,1c0.4,0.4,0.8,1,1,1.6
			c0.2,0.6,0.3,1.3,0.3,2.1c0,0.5-0.1,0.9-0.2,1.4c-0.1,0.4-0.3,0.9-0.5,1.3c-0.1,0.2-0.4,0.3-0.7,0.2c-0.2-0.1-0.3-0.4-0.2-0.7
			c0.2-0.3,0.3-0.7,0.4-1.1c0.1-0.4,0.2-0.7,0.2-1.1c0-0.6-0.1-1.2-0.3-1.8c-0.2-0.5-0.5-0.9-0.8-1.3c-0.3-0.3-0.8-0.6-1.3-0.8
			c-0.7-0.3-1.7-0.4-2.7-0.1c-0.3,0.1-0.6,0.2-0.9,0.4c-0.3,0.2-0.6,0.4-0.9,0.6c-0.3,0.2-0.5,0.5-0.8,0.7c-0.2,0.2-0.5,0.2-0.7,0
			c-0.2-0.2-0.5-0.5-0.8-0.7c-0.3-0.2-0.6-0.4-0.9-0.6C9.7,5.4,9.4,5.3,9.1,5.2C8.1,4.9,7.2,5,6.4,5.3C5.9,5.5,5.5,5.8,5.1,6.1
			C4.8,6.5,4.5,6.9,4.3,7.4C4.2,7.9,4.1,8.5,4.1,9.1c0,0.4,0.1,0.7,0.2,1.1c0.1,0.4,0.3,0.7,0.4,1.1c0.2,0.3,0.4,0.7,0.6,1
			c0.2,0.3,0.5,0.6,0.8,0.9l5.8,5.8c0.2,0.2,0.3,0.1,0.3,0l1.6-1.6c0.2-0.2,0.5-0.2,0.7,0s0.2,0.5,0,0.7l-1.6,1.6
			C12.6,19.9,12.3,20,12,20z"/>
	</g>
	<g>
		<path fill="#333333" d="M20.4,13.8h-1.9v-1.9c0-0.2-0.1-0.4-0.3-0.6c-0.2-0.1-0.3-0.2-0.5-0.2h-0.9c-0.5,0-0.7,0.3-0.7,0.8v1.9
			h-1.9c-0.5,0-0.8,0.3-0.8,0.8v0.9c0,0.2,0.1,0.4,0.2,0.5c0.1,0.2,0.3,0.2,0.5,0.2h1.9v1.9c0,0.5,0.3,0.8,0.8,0.8h0.9
			c0.2,0,0.4-0.1,0.6-0.2c0.2-0.1,0.2-0.3,0.2-0.5v-1.9h1.9c0.2,0,0.4-0.1,0.5-0.2c0.1-0.1,0.2-0.3,0.2-0.5v-0.9
			C21.1,14.1,20.9,13.8,20.4,13.8z"/>
	</g>
</g>
<g id="Layer_2" display="none">
</g>
</svg>
