<?xml version="1.0" encoding="utf-8"?>
<!-- Generator: Adobe Illustrator 18.1.0, SVG Export Plug-In . SVG Version: 6.00 Build 0)  -->
<!DOCTYPE svg PUBLIC "-//W3C//DTD SVG 1.1//EN" "http://www.w3.org/Graphics/SVG/1.1/DTD/svg11.dtd">
<svg version="1.1" xmlns="http://www.w3.org/2000/svg" xmlns:xlink="http://www.w3.org/1999/xlink" x="0px" y="0px" width="24px"
	 height="24px" viewBox="0 0 24 24" enable-background="new 0 0 24 24" xml:space="preserve">
<g id="Layer_1">
	<g>
		<g>
			<path fill="#333333" d="M3.7,15.8l1.7,4.3c0,0.1,0,0.2-0.1,0.3c-0.1,0.1-0.1,0.1-0.2,0.1H3.1c-0.1,0-0.2,0-0.2-0.1
				c-0.1-0.1-0.1-0.2-0.1-0.3l1.7-4.3"/>
		</g>
	</g>
	<g>
		<g>
			<path fill="#333333" d="M5.5,10.4L5,10.2h0l-0.4-0.1v5.2c0.5,0.2,0.9,0.7,0.9,1.3c0,0.8-0.6,1.4-1.4,1.4s-1.4-0.6-1.4-1.4
				c0-0.6,0.4-1.1,0.9-1.3V9.8L2,9.3C1.6,9.2,1.4,8.9,1.4,8.5s0.2-0.6,0.5-0.7l10.2-3.2c0,0,0.2,0,0.2,0c0,0,0.1,0,0.2,0l10.1,3.2
				c0.3,0.1,0.5,0.4,0.5,0.8S23,9.2,22.7,9.3l-3.5,1.1"/>
		</g>
	</g>
	<g>
		<g>
			<path fill="#333333" d="M12.1,16.6c-2.9,0-5.4-0.7-6.4-1.8c-0.4-0.4-0.6-0.9-0.5-1.3l0.2-3.2c0-0.2,0.1-0.3,0.2-0.4
				C5.7,9.8,5.8,9.8,6,9.8l5.9,1.9c0.2,0.1,0.5,0.1,0.7,0l5.9-1.9c0.1,0,0.3,0,0.4,0.1c0.1,0.1,0.2,0.2,0.2,0.4l0.2,3.2
				c0,0.5-0.2,1-0.6,1.4C17.7,16,15.4,16.6,12.1,16.6C12.2,16.6,12.1,16.6,12.1,16.6z M6.3,11l-0.1,2.6c0,0.2,0.1,0.4,0.3,0.6
				c0.8,0.9,3.2,1.5,5.7,1.5h0.1c2.8,0,5-0.5,5.8-1.4c0.2-0.2,0.3-0.5,0.3-0.7L18.1,11l-5.3,1.7c-0.4,0.1-0.9,0.1-1.3,0L6.3,11z"/>
		</g>
	</g>
	<g>
		<polygon fill="#333333" points="5.3,10 12.3,12.2 21.8,9.2 12.3,6.3 2.9,9.2 		"/>
	</g>
	<g>
		<polygon fill="#FFFFFF" points="5.3,9.3 12.3,11.5 21.8,8.5 12.3,5.6 2.9,8.5 		"/>
	</g>
</g>
<g id="Layer_2" display="none">
</g>
</svg>
