<?xml version="1.0" encoding="utf-8"?>
<!-- Generator: Adobe Illustrator 18.1.1, SVG Export Plug-In . SVG Version: 6.00 Build 0)  -->
<!DOCTYPE svg PUBLIC "-//W3C//DTD SVG 1.1//EN" "http://www.w3.org/Graphics/SVG/1.1/DTD/svg11.dtd">
<svg version="1.1" xmlns="http://www.w3.org/2000/svg" xmlns:xlink="http://www.w3.org/1999/xlink" x="0px" y="0px" width="24px"
	 height="24px" viewBox="0 0 24 24" enable-background="new 0 0 24 24" xml:space="preserve">
<g id="Layer_1">
	<path fill="#333333" d="M22.7,7.8L12.5,4.6c-0.1,0-0.2,0-0.2,0c-0.1,0-0.2,0-0.2,0L1.9,7.8C1.6,7.9,1.4,8.2,1.4,8.5S1.6,9.2,2,9.3
		l1.6,0.5v5.5c-0.5,0.2-0.9,0.7-0.9,1.3c0,0.6,0.4,1.1,1,1.3l-0.9,2.3c0,0.1,0,0.2,0.1,0.3c0.1,0.1,0.2,0.1,0.2,0.1H5
		c0.1,0,0.2,0,0.2-0.1c0.1-0.1,0.1-0.2,0.1-0.3l-0.9-2.3c0.6-0.2,1-0.7,1-1.3c0-0.6-0.4-1.1-0.9-1.3v-5.2L5,10.2h0l0.3,0.1l-0.2,3.1
		c0,0.5,0.2,0.9,0.5,1.3c1.1,1.1,3.6,1.8,6.4,1.8c0,0,0.1,0,0.1,0c3.2,0,5.5-0.6,6.5-1.7c0.4-0.4,0.6-0.9,0.6-1.4l-0.2-3l3.6-1.2
		c0.3-0.1,0.5-0.4,0.5-0.7S23,7.9,22.7,7.8z M18,14.2c-0.8,0.9-3,1.4-5.8,1.4h-0.1c-2.5,0-4.9-0.6-5.7-1.5c-0.2-0.2-0.3-0.4-0.3-0.6
		L6.3,11l5.3,1.7c0.4,0.1,0.9,0.1,1.3,0l5.3-1.7l0.1,2.6C18.3,13.8,18.2,14,18,14.2z M20.7,8.9l-4.8,1.5l-3.6,1.1l-3.6-1.1L5.3,9.3
		L4,8.9L2.9,8.5l9.4-3l9.4,3L20.7,8.9z"/>
</g>
<g id="Layer_2" display="none">
</g>
</svg>
