<?xml version="1.0" encoding="utf-8"?>
<!-- Generator: Adobe Illustrator 18.1.0, SVG Export Plug-In . SVG Version: 6.00 Build 0)  -->
<!DOCTYPE svg PUBLIC "-//W3C//DTD SVG 1.1//EN" "http://www.w3.org/Graphics/SVG/1.1/DTD/svg11.dtd">
<svg version="1.1" xmlns="http://www.w3.org/2000/svg" xmlns:xlink="http://www.w3.org/1999/xlink" x="0px" y="0px" width="24px"
	 height="24px" viewBox="0 0 24 24" enable-background="new 0 0 24 24" xml:space="preserve">
<g id="Layer_1">
	<g>
		<g>
			<g>
				<path fill="#333333" d="M10.1,21.1H9.9c0,0-0.1,0-0.1,0c-5.4-1.6-6.8-4.9-7.1-6.7c-0.2-1.2,0-8,0-8.7c0-0.1,0.1-0.3,0.2-0.4
					C2.8,5.2,3,5.2,3.1,5.2c4.7,0.3,6.4-2,6.4-2.1c0.2-0.3,0.7-0.3,0.9,0c0.1,0.1,1.8,2.4,6.4,2.1c0.1,0,0.3,0,0.4,0.1
					s0.2,0.2,0.2,0.4c0,0.2,0.2,4.8,0.1,7.1c0,0.3-0.3,0.5-0.5,0.5c-0.3,0-0.5-0.2-0.5-0.5c0.1-1.8,0-5-0.1-6.5
					c-3.7,0.1-5.7-1.3-6.4-2.1C9.2,4.9,7.3,6.3,3.6,6.2c-0.1,2.3-0.2,7.1,0,8c0.3,1.6,1.5,4.5,6.4,5.9H10c0.4-0.1,0.9-0.3,1.3-0.4
					c0.2-0.1,0.3-0.1,0.5-0.2c0.3-0.1,0.5,0,0.7,0.2c0.1,0.3,0,0.5-0.2,0.7c-0.2,0.1-0.4,0.2-0.6,0.2c-0.4,0.2-0.9,0.3-1.4,0.5
					C10.2,21.1,10.1,21.1,10.1,21.1z"/>
			</g>
		</g>
		<g>
			<g>
				<g>
					<g>
						<g>
							<path fill="#333333" d="M20.9,17.2c-1,1.7-2.9,2.8-4.8,2.8s-3.8-1.1-4.8-2.8c-0.1-0.1-0.1-0.2-0.1-0.4s0-0.3,0.1-0.4
								c1-1.7,2.9-2.8,4.8-2.8s3.8,1.1,4.8,2.8c0.1,0.1,0.1,0.2,0.1,0.4S21,17.1,20.9,17.2z"/>
						</g>
					</g>
				</g>
				<g>
					<g>
						<path fill="#FFFFFF" d="M16.1,14.4c-0.9,0-1.7,0.8-1.7,1.7c0,0.1,0.1,0.3,0.3,0.3s0.3-0.1,0.3-0.3c0-0.6,0.5-1.1,1.1-1.1
							c0.1,0,0.3-0.1,0.3-0.3S16.2,14.4,16.1,14.4z"/>
					</g>
				</g>
			</g>
			<g>
				<g>
					<path fill="#FFFFFF" d="M18.2,14.9c0.2,0.4,0.3,0.8,0.3,1.2c0,1.4-1.1,2.5-2.5,2.5s-2.5-1.1-2.5-2.5c0-0.4,0.1-0.9,0.3-1.2
						c-0.9,0.4-1.6,1.1-2.1,1.9c0.9,1.5,2.5,2.5,4.2,2.5s3.3-1,4.2-2.5C19.8,16,19.1,15.3,18.2,14.9z"/>
				</g>
			</g>
		</g>
	</g>
	<g>
		<g>
			<path fill="#333333" d="M16.9,9.5H3C2.7,9.5,2.5,9.3,2.5,9S2.7,8.5,3,8.5h13.9c0.3,0,0.5,0.2,0.5,0.5S17.2,9.5,16.9,9.5z"/>
		</g>
	</g>
	<g>
		<g>
			<path fill="#333333" d="M10.9,14.8H3.1c-0.3,0-0.5-0.2-0.5-0.5s0.2-0.5,0.5-0.5h7.8c0.3,0,0.5,0.2,0.5,0.5S11.1,14.8,10.9,14.8z"
				/>
		</g>
	</g>
</g>
<g id="Layer_2" display="none">
</g>
</svg>
