<?xml version="1.0" encoding="utf-8"?>
<!-- Generator: Adobe Illustrator 18.1.1, SVG Export Plug-In . SVG Version: 6.00 Build 0)  -->
<!DOCTYPE svg PUBLIC "-//W3C//DTD SVG 1.1//EN" "http://www.w3.org/Graphics/SVG/1.1/DTD/svg11.dtd">
<svg version="1.1" xmlns="http://www.w3.org/2000/svg" xmlns:xlink="http://www.w3.org/1999/xlink" x="0px" y="0px" width="24px"
	 height="24px" viewBox="0 0 24 24" enable-background="new 0 0 24 24" xml:space="preserve">
<g id="Layer_1">
	<g>
		<path fill="#333333" d="M20.9,16.4c-1-1.7-2.9-2.8-4.8-2.8c-2,0-3.8,1.1-4.8,2.8c-0.1,0.1-0.1,0.2-0.1,0.4s0,0.3,0.1,0.4
			c1,1.7,2.9,2.8,4.8,2.8c2,0,3.8-1.1,4.8-2.8c0.1-0.1,0.1-0.2,0.1-0.4S21,16.5,20.9,16.4z M16.1,14.4c0.1,0,0.3,0.1,0.3,0.3
			s-0.1,0.3-0.3,0.3c-0.6,0-1.1,0.5-1.1,1.1c0,0.1-0.1,0.3-0.3,0.3c-0.1,0-0.3-0.1-0.3-0.3C14.4,15.2,15.2,14.4,16.1,14.4z
			 M16.1,19.3c-1.8,0-3.3-1-4.2-2.5c0.5-0.8,1.2-1.5,2.1-1.9c-0.2,0.4-0.3,0.8-0.3,1.2c0,1.4,1.1,2.5,2.5,2.5c1.4,0,2.5-1.1,2.5-2.5
			c0-0.4-0.1-0.9-0.3-1.2c0.9,0.4,1.6,1.1,2.1,1.9C19.4,18.2,17.9,19.3,16.1,19.3z"/>
		<path fill="#333333" d="M11.8,19.5c-0.2,0.1-0.3,0.1-0.5,0.2c-0.4,0.2-0.8,0.3-1.3,0.4H9.9c-4.3-1.3-5.7-3.7-6.2-5.3h7.1
			c0.3,0,0.5-0.2,0.5-0.5s-0.2-0.5-0.5-0.5H3.5c-0.1-0.8-0.1-2.6,0-4.3h13c0,1.1,0,2.3,0,3.1c0,0.3,0.2,0.5,0.5,0.5
			c0.3,0,0.5-0.2,0.5-0.5c0.1-2.3-0.1-6.8-0.1-7.1c0-0.1-0.1-0.3-0.2-0.4S17,5.2,16.9,5.2c-4.7,0.3-6.4-2-6.4-2.1
			c-0.2-0.3-0.7-0.3-0.9,0C9.5,3.2,7.8,5.5,3.1,5.2c-0.1,0-0.3,0-0.4,0.1C2.6,5.4,2.6,5.5,2.6,5.7C2.6,6,2.5,7.4,2.5,9
			c0,0,0,0,0,0.1c0,0,0,0,0,0.1c0,2.1,0,4.6,0.1,5.3c0.4,1.8,1.8,5.2,7.1,6.7c0,0,0.1,0,0.1,0h0.2c0,0,0.1,0,0.1,0
			c0.5-0.1,1-0.3,1.4-0.5c0.2-0.1,0.4-0.2,0.6-0.2c0.3-0.1,0.4-0.4,0.2-0.7C12.4,19.5,12.1,19.3,11.8,19.5z M3.6,6.2
			C7.3,6.3,9.2,4.9,10,4.1c0.8,0.8,2.7,2.2,6.4,2.1c0,0.6,0,1.4,0.1,2.3h-13C3.5,7.7,3.5,6.8,3.6,6.2z"/>
	</g>
</g>
<g id="Layer_2" display="none">
</g>
</svg>
