<?xml version="1.0" encoding="utf-8"?>
<!-- Generator: Adobe Illustrator 18.1.0, SVG Export Plug-In . SVG Version: 6.00 Build 0)  -->
<!DOCTYPE svg PUBLIC "-//W3C//DTD SVG 1.1//EN" "http://www.w3.org/Graphics/SVG/1.1/DTD/svg11.dtd">
<svg version="1.1" xmlns="http://www.w3.org/2000/svg" xmlns:xlink="http://www.w3.org/1999/xlink" x="0px" y="0px" width="24px"
	 height="24px" viewBox="0 0 24 24" enable-background="new 0 0 24 24" xml:space="preserve">
<g id="Layer_1">
	<g>
		<g>
			<g>
				<path fill="#333333" d="M20.1,20.4H4.2c-0.3,0-0.5-0.2-0.5-0.5v-1.1c0-0.3,0.3-1.5,1.1-1.6v-1c0-0.6,0.5-1,1.1-1V9.9
					C5.4,9.9,5,9.5,4.9,9H4.2C3.9,9,3.7,8.8,3.7,8.5V7.5C3.7,7.3,3.8,7.1,4,7l8-3.2c0.1,0,0.3,0,0.4,0l8,3.2
					c0.2,0.1,0.3,0.3,0.3,0.5v1.1c0,0.3-0.2,0.5-0.5,0.5h-0.7c-0.2,0.4-0.5,0.8-1,0.9v5.4c0.6,0,1.1,0.5,1.1,1v1
					c0.8,0,1.1,1.2,1.1,1.6v1.1C20.6,20.2,20.4,20.4,20.1,20.4z M4.7,19.4h14.9v-0.6c0-0.1-0.1-0.4-0.2-0.6H4.9
					c-0.1,0.1-0.2,0.4-0.2,0.6V19.4z M5.8,17.3h12.8v-1l-0.6,0c-0.3,0-0.5-0.2-0.5-0.5V9.9H6.8v5.9c0,0.3-0.2,0.5-0.5,0.5H5.8
					L5.8,17.3z M18,8.9h0.4c0.1-0.1,0.1-0.3,0.1-0.4c0-0.3,0.2-0.5,0.5-0.5h0.6V7.8l-7.5-3l-7.5,3V8h0.6c0.3,0,0.5,0.2,0.5,0.5
					c0,0.1,0.1,0.3,0.1,0.4H18z"/>
			</g>
			<g>
				<path fill="#333333" d="M9.2,16.3c-0.3,0-0.5-0.2-0.5-0.5v-6c0-0.3,0.2-0.5,0.5-0.5s0.5,0.2,0.5,0.5v6C9.7,16,9.4,16.3,9.2,16.3
					z"/>
			</g>
			<g>
				<path fill="#333333" d="M15.2,16.3c-0.3,0-0.5-0.2-0.5-0.5v-6c0-0.3,0.2-0.5,0.5-0.5s0.5,0.2,0.5,0.5v6
					C15.7,16,15.4,16.3,15.2,16.3z"/>
			</g>
			<g>
				<path fill="#333333" d="M12.2,16.3c-0.3,0-0.5-0.2-0.5-0.5v-6c0-0.3,0.2-0.5,0.5-0.5s0.5,0.2,0.5,0.5v6
					C12.7,16,12.4,16.3,12.2,16.3z"/>
			</g>
		</g>
		<g>
			<circle fill="#333333" cx="12.2" cy="7.2" r="0.9"/>
		</g>
	</g>
</g>
<g id="Layer_2" display="none">
</g>
</svg>
