<?xml version="1.0" encoding="utf-8"?>
<!-- Generator: Adobe Illustrator 18.1.0, SVG Export Plug-In . SVG Version: 6.00 Build 0)  -->
<!DOCTYPE svg PUBLIC "-//W3C//DTD SVG 1.1//EN" "http://www.w3.org/Graphics/SVG/1.1/DTD/svg11.dtd">
<svg version="1.1" xmlns="http://www.w3.org/2000/svg" xmlns:xlink="http://www.w3.org/1999/xlink" x="0px" y="0px" width="24px"
	 height="24px" viewBox="0 0 24 24" enable-background="new 0 0 24 24" xml:space="preserve">
<g id="Layer_1">
	<g>
		<path fill="#333333" d="M9.7,18.9c-1.9,0-2.9-1.2-3.2-1.9l-0.1-0.2c-0.1-0.3-0.2-0.6-1.6-4.2c-1.2-3.4-0.4-6,2.3-7.1
			c1.5-0.6,2.7-0.1,3.7,0.3C11.2,5.9,11.6,6,12,6.1c0.4-0.1,0.8-0.2,1.2-0.4c1-0.4,2.2-0.9,3.7-0.3c2,0.8,3,2.6,2.8,4.9
			c0,0.3-0.3,0.5-0.5,0.5c-0.3,0-0.5-0.3-0.5-0.5c0.2-2.5-1.3-3.5-2.2-3.9c-1.1-0.5-2-0.1-3,0.3c-0.5,0.2-1,0.4-1.5,0.5
			c-0.1,0-0.1,0-0.2,0c-0.5-0.1-1-0.3-1.5-0.5c-1-0.4-1.9-0.8-3-0.3c-2.2,0.9-2.8,3-1.7,5.9c1.3,3.6,1.4,3.9,1.6,4.2l0.1,0.2
			c0.1,0.2,0.7,1.5,2.7,1.3c0.2,0,0.5,0.2,0.5,0.4c0,0.3-0.2,0.5-0.4,0.5C10,18.9,9.9,18.9,9.7,18.9z"/>
	</g>
	<g>
		<g>
			<g>
				<path fill="#282828" d="M22.1,14.7l-1.8,6.1c-0.2,0.6-0.8,1-1.3,1h-6.2c-0.7,0-1.4-0.5-1.7-1.2c-0.1-0.3-0.1-0.6,0-0.9
					c0-0.1,2.3-7.6,3.6-8.1c0,0,0.2-0.1,0.4-0.1h5.1c0.3,0,0.6,0.1,0.8,0.4c0.2,0.2,0.2,0.6,0.1,0.9l-1.8,6.1
					c-0.3,1-0.5,1.3-1.3,1.3H12c-0.1,0-0.2,0-0.3,0.1c-0.1,0.1-0.1,0.1,0,0.3c0.1,0.4,0.6,0.5,1,0.5h6.2c0.2,0,0.5-0.1,0.6-0.4
					l2-6.6c0-0.1,0-0.3,0-0.4c0.2,0.1,0.3,0.2,0.4,0.3C22.1,14,22.2,14.3,22.1,14.7z"/>
			</g>
		</g>
		<g>
			<path fill="#FFFFFF" d="M14.4,15.7h4.1c0.1,0,0.2-0.1,0.3-0.2l0.1-0.4c0-0.1,0-0.2-0.1-0.2h-4.1c-0.1,0-0.2,0.1-0.3,0.2l-0.1,0.4
				C14.3,15.6,14.3,15.7,14.4,15.7z"/>
		</g>
		<g>
			<path fill="#FFFFFF" d="M15,14h4.1c0.1,0,0.2-0.1,0.3-0.2l0.1-0.4c0-0.1,0-0.2-0.1-0.2h-4.1c-0.1,0-0.2,0.1-0.3,0.2l-0.1,0.4
				C14.8,13.9,14.9,14,15,14z"/>
		</g>
	</g>
	<g>
		<path fill="#333333" d="M12,7.1c-0.3,0-0.5-0.2-0.5-0.5C11.3,5,11.6,3.7,12.4,3c0.9-0.9,2-0.8,2-0.8c0.3,0,0.5,0.3,0.5,0.5
			c0,0.3-0.3,0.5-0.5,0.5c0,0-0.7,0-1.3,0.5c-0.5,0.6-0.7,1.6-0.6,2.9C12.5,6.8,12.3,7.1,12,7.1C12,7.1,12,7.1,12,7.1z"/>
	</g>
</g>
<g id="Layer_2" display="none">
</g>
</svg>
