<?xml version="1.0" encoding="utf-8"?>
<!-- Generator: Adobe Illustrator 18.1.0, SVG Export Plug-In . SVG Version: 6.00 Build 0)  -->
<!DOCTYPE svg PUBLIC "-//W3C//DTD SVG 1.1//EN" "http://www.w3.org/Graphics/SVG/1.1/DTD/svg11.dtd">
<svg version="1.1" xmlns="http://www.w3.org/2000/svg" xmlns:xlink="http://www.w3.org/1999/xlink" x="0px" y="0px" width="24px"
	 height="24px" viewBox="0 0 24 24" enable-background="new 0 0 24 24" xml:space="preserve">
<g id="Layer_1">
	<g>
		<g>
			<g>
				<g>
					<path fill="#333333" d="M13.8,11.1H4.9c-0.3,0-0.5-0.2-0.5-0.5s0.2-0.5,0.5-0.5h8.8c0.3,0,0.5,0.2,0.5,0.5S14,11.1,13.8,11.1z"
						/>
				</g>
			</g>
			<g>
				<g>
					<path fill="#333333" d="M12.5,13.8C12.5,13.8,12.5,13.8,12.5,13.8l-6.4-0.1c-0.3,0-0.5-0.2-0.5-0.5l-0.3-2.6
						c0-0.3,0.2-0.5,0.5-0.5c0.3,0,0.5,0.2,0.5,0.5l0.2,2.2l5.5,0l0.2-2.2c0-0.3,0.3-0.5,0.5-0.5c0.3,0,0.5,0.3,0.5,0.5L13,13.4
						C13,13.6,12.8,13.8,12.5,13.8z"/>
				</g>
			</g>
			<g>
				<g>
					<path fill="#333333" d="M10.7,22.6H8.5c-0.3,0-0.5-0.2-0.5-0.4L7,13.5c0-0.3,0.2-0.5,0.4-0.6c0.3,0,0.5,0.2,0.6,0.4l1,8.3h1.3
						l0.4-3.6c0-0.3,0.3-0.5,0.6-0.4c0.3,0,0.5,0.3,0.4,0.6l-0.5,4.1C11.2,22.4,11,22.6,10.7,22.6z"/>
				</g>
			</g>
			<g>
				<g>
					<path fill="#333333" d="M7.8,10.9c-0.1,0-0.2,0-0.3-0.1c-0.8-0.7-2.6-2-2.6-4c0-3,2.3-4.5,4.2-5.4c0.2-0.1,0.4,0,0.6,0.1
						c0,0,0,0,0,0c0.1,0.2,0.2,0.4,0.1,0.5C9.6,2.6,9.4,3.2,9.4,3.6c0,0.6,0.5,1,1.3,1.6c1,0.8,2.2,1.7,2.2,3.6
						c0,0.5-0.1,0.9-0.2,1.4c-0.1,0.3-0.3,0.4-0.6,0.4c-0.3-0.1-0.4-0.3-0.4-0.6c0.1-0.3,0.1-0.7,0.1-1.1C11.8,7.4,11,6.7,10,6
						C9.2,5.4,8.4,4.8,8.4,3.6c0-0.2,0-0.5,0.1-0.7C6.7,4,5.9,5.2,5.9,6.8c0,1.5,1.5,2.6,2.2,3.2c0.2,0.2,0.3,0.5,0.1,0.7
						C8.1,10.9,8,10.9,7.8,10.9z"/>
				</g>
			</g>
		</g>
		<g>
			<g>
				<path fill="#333333" d="M19.4,15.6l-1.9,1.9l0.5,2.7c0,0,0,0.1,0,0.1c0,0.1-0.1,0.3-0.2,0.3c-0.1,0-0.2,0-0.2-0.1l-2.4-1.3
					l-2.4,1.3c-0.1,0-0.1,0.1-0.2,0.1c-0.2,0-0.2-0.1-0.2-0.3c0,0,0-0.1,0-0.1l0.5-2.7l-2-1.9c-0.1-0.1-0.1-0.2-0.1-0.3
					c0-0.2,0.2-0.2,0.3-0.2l2.7-0.4l1.2-2.4c0-0.1,0.1-0.2,0.3-0.2s0.2,0.1,0.3,0.2l1.2,2.4l2.7,0.4c0.1,0,0.3,0.1,0.3,0.2
					C19.6,15.4,19.5,15.5,19.4,15.6z"/>
			</g>
		</g>
	</g>
</g>
<g id="Layer_2" display="none">
</g>
</svg>
