<?xml version="1.0" encoding="utf-8"?>
<!-- Generator: Adobe Illustrator 18.1.1, SVG Export Plug-In . SVG Version: 6.00 Build 0)  -->
<!DOCTYPE svg PUBLIC "-//W3C//DTD SVG 1.1//EN" "http://www.w3.org/Graphics/SVG/1.1/DTD/svg11.dtd">
<svg version="1.1" xmlns="http://www.w3.org/2000/svg" xmlns:xlink="http://www.w3.org/1999/xlink" x="0px" y="0px" width="24px"
	 height="24px" viewBox="0 0 24 24" enable-background="new 0 0 24 24" xml:space="preserve">
<g id="Layer_1">
	<g>
		<g>
			<path fill="#333333" d="M15,10.2l-2.3-6.1c-0.1-0.2-0.2-0.3-0.3-0.4c-0.2-0.1-0.4-0.2-0.5-0.2H7.5C7.3,3.5,7.1,3.6,7,3.7
				C6.8,3.8,6.7,4,6.7,4.1L2,16.8c-0.1,0.3,0,0.6,0.1,0.7c0.1,0.2,0.3,0.3,0.6,0.3h8.2c0.3,0,0.5-0.2,0.5-0.5s-0.2-0.5-0.5-0.5h-0.7
				V15c0-0.3-0.2-0.5-0.5-0.5S9.2,14.7,9.2,15v1.8H3.1L7.5,4.5l1.6,0v2.1c0,0.3,0.2,0.5,0.5,0.5s0.5-0.2,0.5-0.5V4.5l1.6,0l2.3,6.1
				c0.1,0.3,0.4,0.4,0.6,0.3C14.9,10.7,15.1,10.5,15,10.2z"/>
			<path fill="#333333" d="M9.7,9.2c-0.3,0-0.5,0.2-0.5,0.5v2.2c0,0.3,0.2,0.5,0.5,0.5s0.5-0.2,0.5-0.5V9.7
				C10.2,9.4,9.9,9.2,9.7,9.2z"/>
		</g>
		<path fill="#333333" d="M21.2,14.5h-0.1l-0.5-2.1c-0.2-0.6-0.8-1.1-1.4-1.1h-3.9c-0.7,0-1.3,0.5-1.4,1.1l-0.5,2.1h-0.1
			c-0.6,0-1.1,0.5-1.1,1.1v2c0,0.1,0.1,0.2,0.2,0.2h0.5v0.7c0,0.5,0.4,1,1,1s1-0.4,1-1v-0.7h5.2v0.7c0,0.5,0.4,1,1,1s1-0.4,1-1v-0.7
			h0.5c0.1,0,0.2-0.1,0.2-0.2v-2C22.4,15,21.9,14.5,21.2,14.5z M13.6,16.9c-0.4,0-0.8-0.4-0.8-0.8s0.4-0.8,0.8-0.8s0.8,0.4,0.8,0.8
			S14,16.9,13.6,16.9z M14.6,14.5l0.5-1.8c0-0.1,0.1-0.1,0.2-0.1h3.9c0.1,0,0.2,0.1,0.2,0.1l0.5,1.8H14.6z M20.7,16.9
			c-0.4,0-0.8-0.4-0.8-0.8s0.4-0.8,0.8-0.8s0.8,0.4,0.8,0.8S21.2,16.9,20.7,16.9z"/>
	</g>
</g>
<g id="Layer_2" display="none">
</g>
</svg>
