<?xml version="1.0" encoding="utf-8"?>
<!-- Generator: Adobe Illustrator 18.1.0, SVG Export Plug-In . SVG Version: 6.00 Build 0)  -->
<!DOCTYPE svg PUBLIC "-//W3C//DTD SVG 1.1//EN" "http://www.w3.org/Graphics/SVG/1.1/DTD/svg11.dtd">
<svg version="1.1" xmlns="http://www.w3.org/2000/svg" xmlns:xlink="http://www.w3.org/1999/xlink" x="0px" y="0px" width="24px"
	 height="24px" viewBox="0 0 24 24" enable-background="new 0 0 24 24" xml:space="preserve">
<g id="Layer_1">
	<g>
		<g>
			<path fill="#333333" d="M10.9,17.8H2.7c-0.3,0-0.5-0.1-0.6-0.3C2,17.4,1.9,17.1,2,16.8L6.7,4.1C6.7,4,6.8,3.8,7,3.7
				c0.2-0.1,0.3-0.2,0.5-0.2h4.3c0.2,0,0.4,0.1,0.5,0.2c0.2,0.1,0.3,0.3,0.3,0.4l2.3,6.1c0.1,0.3,0,0.5-0.3,0.6
				c-0.3,0.1-0.5,0-0.6-0.3l-2.3-6.1l-4.2,0L3.1,16.8h7.8c0.3,0,0.5,0.2,0.5,0.5S11.2,17.8,10.9,17.8z"/>
		</g>
	</g>
	<g>
		<g>
			<path fill="#333333" d="M9.7,17.6c-0.3,0-0.5-0.2-0.5-0.5V15c0-0.3,0.2-0.5,0.5-0.5s0.5,0.2,0.5,0.5v2.2
				C10.2,17.4,9.9,17.6,9.7,17.6z"/>
		</g>
	</g>
	<g>
		<g>
			<path fill="#333333" d="M9.7,7.1c-0.3,0-0.5-0.2-0.5-0.5V4.4c0-0.3,0.2-0.5,0.5-0.5s0.5,0.2,0.5,0.5v2.2
				C10.2,6.9,9.9,7.1,9.7,7.1z"/>
		</g>
	</g>
	<g>
		<g>
			<path fill="#333333" d="M9.7,12.4c-0.3,0-0.5-0.2-0.5-0.5V9.7c0-0.3,0.2-0.5,0.5-0.5s0.5,0.2,0.5,0.5v2.2
				C10.2,12.1,9.9,12.4,9.7,12.4z"/>
		</g>
	</g>
	<g>
		<g>
			<g>
				<g>
					<path fill="#333333" d="M22.4,17.6c0,0.1-0.1,0.2-0.2,0.2h-0.5v0.7c0,0.5-0.4,1-1,1s-1-0.4-1-1v-0.7h-5.2v0.7c0,0.5-0.4,1-1,1
						s-1-0.4-1-1v-0.7h-0.5c-0.1,0-0.2-0.1-0.2-0.2v-2c0-0.6,0.5-1.1,1.1-1.1h0.1l0.5-2.1c0.2-0.6,0.8-1.1,1.4-1.1h3.9
						c0.7,0,1.3,0.5,1.4,1.1l0.5,2.1h0.1c0.6,0,1.1,0.5,1.1,1.1V17.6z"/>
				</g>
			</g>
		</g>
		<g>
			<g>
				<circle fill="#FFFFFF" cx="13.6" cy="16.1" r="0.8"/>
			</g>
		</g>
		<g>
			<g>
				<circle fill="#FFFFFF" cx="20.7" cy="16.1" r="0.8"/>
			</g>
		</g>
		<g>
			<g>
				<path fill="#FFFFFF" d="M19.8,14.5l-0.5-1.8c0-0.1-0.1-0.1-0.2-0.1h-3.9c-0.1,0-0.2,0.1-0.2,0.1l-0.5,1.8H19.8z"/>
			</g>
		</g>
	</g>
</g>
<g id="Layer_2" display="none">
</g>
</svg>
