<svg xmlns="http://www.w3.org/2000/svg" viewBox="0 0 792 612" enable-background="new 0 0 792 612"><g fill="#fff"><path d="M188.1 284v45.9h-10.3V284h-10.1v-9.1h30.5v9.1h-10.1zM223.2 329.8v-22.5h-11.5v22.5h-10.2v-54.9h10.2v23.3h11.5v-23.3h10.3v54.9h-10.3zM239.9 329.8v-54.9h26.2v8.8h-16v13.6h11.1v8.1h-11.1v15.3h16v9.2h-26.2zM301.8 284v45.9h-10.3V284h-10.1v-9.1h30.5v9.1h-10.1zM316.2 329.8v-54.9h26.2v8.8h-16v13.6h11v8.1h-11v15.3h16v9.2h-26.2zM369 329.8l-6.4-19-7 19h-10l11.3-27.7-10.6-27.2H357l6 19 6.6-19h10.1l-11 26.4 11 28.5H369zM404.9 329.8L403 319h-9.7l-2 10.8h-9.6l11.1-54.9h11.5l11 54.9h-10.4zm-6.5-40.1l-3.7 21.2h7l-3.3-21.2zM431.8 331.1c-9.4 0-15.3-5.6-15.3-14.2v-3.8h9.4v3.2c0 4 1.9 6.3 5.6 6.3 3.6 0 5.4-2.1 5.4-5.5 0-4.4-2.8-7.3-8.2-11.4-5.6-4-11.7-9.5-11.7-17.2 0-7.9 5.1-14.8 15-14.8 8.7 0 14.4 5.9 14.4 14.1v3.5h-9.3V288c0-3.4-1.7-5.9-5.2-5.9-3 0-4.9 1.9-4.9 4.9 0 4.6 2.7 7 8.8 11.5 6.5 4.9 11.1 9.8 11.1 17.2.1 9-6 15.4-15.1 15.4zM481 284v45.9h-10.3V284h-10.1v-9.1H491v9.1h-10zM520.7 330.2c-4 0-5.6-3.3-5.6-8.1v-10.3c0-2.6-1.3-4.7-4.2-4.7h-5.4v22.8h-10.2V275h16.9c7.5 0 12.5 4.3 12.5 12v7.8c0 4.1-1.9 7.2-6.2 8.5 4.3 1.2 6.3 4.8 6.3 8.3v10.1c0 2.6.7 4.3 2 5.6v3.1h-6.1zm-5.9-42.9c0-2.5-1.1-4-3.6-4h-5.6v16.2h5.2c2.6 0 4-1.4 4-4.4v-7.8zM533 329.8v-54.9h10.2v54.9H533zM568.7 329.8h-17.3v-54.9h17.2c7.5 0 12.1 4 12.1 11.6v5.9c0 4.7-1.8 8.2-6.5 9.2 5 1.3 6.8 4.7 6.8 9.3v7.2c-.1 7.8-4.8 11.7-12.3 11.7zm2.2-42.5c0-2.5-1.1-4-3.6-4h-5.5v15.1h5.1c2.6 0 4-1.4 4-4.3v-6.8zm.2 23c0-2.9-1.4-4.4-4-4.4h-5.3v15.5h5.8c2.6 0 3.5-1.4 3.5-4v-7.1zM602.5 331.1c-8.9 0-15.5-5.7-15.5-13.9V275h10.4v42.2c0 3.2 1.8 5 5.1 5 3.4 0 5.2-1.8 5.2-5V275h10v42.2c0 8.2-6.3 13.9-15.2 13.9zM647.8 329.8l-10.6-23.4-3.9-8.7v32.2h-9.4V275h8.8l10.1 23.8 3.6 8.7v-32.6h9.2v54.9h-7.8zM662.6 329.8v-54.9h26.2v8.8h-16v13.6h11.1v8.1h-11.1v15.3h16v9.2h-26.2z"/></g><path fill="#FFC200" d="M103.1 274.3v63.9l12.9-8h43v-55.9h-55.9zm40.1 44.7l-12.2-8.1-12.2 8.1 3.9-14.1-11.4-9.2 14.6-.7 5.2-13.7 5.2 13.7 14.6.7-11.4 9.2 3.7 14.1z"/></svg>