<?xml version="1.0" encoding="utf-8"?>
<!-- Generator: Adobe Illustrator 18.1.1, SVG Export Plug-In . SVG Version: 6.00 Build 0)  -->
<!DOCTYPE svg PUBLIC "-//W3C//DTD SVG 1.1//EN" "http://www.w3.org/Graphics/SVG/1.1/DTD/svg11.dtd">
<svg version="1.1" id="Layer_1" xmlns="http://www.w3.org/2000/svg" xmlns:xlink="http://www.w3.org/1999/xlink" x="0px" y="0px"
	 viewBox="0 0 204 102" enable-background="new 0 0 204 102" xml:space="preserve">
<g>
	<path d="M104.1,4.4v22.1h-5V4.4h-4.9V0H109v4.4H104.1z"/>
	<path d="M121.1,26.5V15.6h-5.5v10.9h-4.9V0h4.9v11.2h5.5V0h5v26.5H121.1z"/>
	<path d="M129.1,26.5V0h12.7v4.3h-7.7v6.6h5.3v3.9h-5.3v7.4h7.7v4.4H129.1z"/>
</g>
<g>
	<path d="M104.1,35.7v22.1h-5V35.7h-4.9v-4.4H109v4.4H104.1z"/>
	<path d="M111.1,57.9V31.4h12.7v4.3h-7.7v6.6h5.3v3.9h-5.3v7.4h7.7v4.4H111.1z"/>
	<path d="M136.6,57.9l-3.1-9.1l-3.4,9.1h-4.8l5.5-13.4l-5.1-13.1h5.2l2.9,9.1l3.2-9.1h4.9l-5.3,12.7l5.3,13.8H136.6z"/>
	<path d="M153.9,57.9l-0.9-5.2h-4.7l-1,5.2h-4.6l5.3-26.5h5.5l5.3,26.5H153.9z M150.8,38.5L149,48.8h3.4L150.8,38.5z"/>
	<path d="M166.9,58.5c-4.5,0-7.4-2.7-7.4-6.8v-1.8h4.5v1.6c0,1.9,0.9,3,2.7,3c1.8,0,2.6-1,2.6-2.7c0-2.1-1.4-3.5-4-5.5
		c-2.7-1.9-5.6-4.6-5.6-8.3c0-3.8,2.5-7.1,7.2-7.1c4.2,0,7,2.9,7,6.8v1.7h-4.5v-1.6c0-1.6-0.8-2.8-2.5-2.8c-1.4,0-2.4,0.9-2.4,2.4
		c0,2.2,1.3,3.4,4.3,5.5c3.1,2.3,5.4,4.7,5.4,8.3C174.2,55.4,171.2,58.5,166.9,58.5z"/>
</g>
<g>
	<path d="M103.7,67v22.1h-5V67h-4.9v-4.4h14.7V67H103.7z"/>
	<path d="M122.9,89.3c-1.9,0-2.7-1.6-2.7-3.9v-5c0-1.2-0.6-2.3-2-2.3h-2.6v11h-4.9V62.6h8.2c3.6,0,6,2.1,6,5.8v3.7
		c0,2-0.9,3.5-3,4.1c2.1,0.6,3.1,2.3,3.1,4v4.9c0,1.2,0.4,2.1,1,2.7v1.5H122.9z M120,68.6c0-1.2-0.5-1.9-1.8-1.9h-2.7v7.8h2.5
		c1.3,0,1.9-0.7,1.9-2.1V68.6z"/>
	<path d="M128.8,89.1V62.6h4.9v26.5H128.8z"/>
	<path d="M146.1,89.1h-8.4V62.6h8.3c3.6,0,5.8,1.9,5.8,5.6v2.9c0,2.3-0.9,4-3.1,4.5c2.4,0.6,3.3,2.3,3.3,4.5v3.5
		C151.9,87.2,149.7,89.1,146.1,89.1z M147.1,68.6c0-1.2-0.5-1.9-1.7-1.9h-2.7V74h2.5c1.3,0,1.9-0.7,1.9-2.1V68.6z M147.2,79.7
		c0-1.4-0.7-2.1-1.9-2.1h-2.5v7.5h2.8c1.2,0,1.7-0.7,1.7-1.9V79.7z"/>
	<path d="M162.3,89.7c-4.3,0-7.5-2.7-7.5-6.7V62.6h5V83c0,1.6,0.9,2.4,2.5,2.4c1.6,0,2.5-0.9,2.5-2.4V62.6h4.8V83
		C169.7,87,166.6,89.7,162.3,89.7z"/>
	<path d="M184.2,89.1l-5.1-11.3l-1.9-4.2v15.5h-4.5V62.6h4.3l4.9,11.5l1.8,4.2V62.6h4.5v26.5H184.2z"/>
	<path d="M191.3,89.1V62.6H204v4.3h-7.7v6.6h5.3v3.9h-5.3v7.4h7.7v4.4H191.3z"/>
</g>
<path fill="#FFC200" d="M0,0.1V102l20.5-12.8h68.6V0.1H0z M63.8,71.2L44.3,58.4L24.8,71.2L31,48.7L12.7,34.1L36,33l8.2-21.9L52.5,33
	l23.3,1.1L57.6,48.7L63.8,71.2z"/>
</svg>
