<?xml version="1.0" encoding="utf-8"?>
<!-- Generator: Adobe Illustrator 18.1.1, SVG Export Plug-In . SVG Version: 6.00 Build 0)  -->
<!DOCTYPE svg PUBLIC "-//W3C//DTD SVG 1.1//EN" "http://www.w3.org/Graphics/SVG/1.1/DTD/svg11.dtd">
<svg version="1.1" id="Layer_1" xmlns="http://www.w3.org/2000/svg" xmlns:xlink="http://www.w3.org/1999/xlink" x="0px" y="0px"
	 width="453.9px" height="50px" viewBox="0 0 453.9 50" enable-background="new 0 0 453.9 50" xml:space="preserve">
<g>
	<g>
		<path d="M65.8,7.9v35.5h-8V7.9H50v-7h23.6v7H65.8z"/>
		<path d="M93.1,43.5V26h-8.9v17.4h-7.9V0.9h7.9v18h8.9v-18h8v42.6H93.1z"/>
		<path d="M106,43.5V0.9h20.3v6.8h-12.4v10.5h8.6v6.3h-8.6v11.8h12.4v7.1H106z"/>
		<path d="M153.9,7.9v35.5h-8V7.9h-7.9v-7h23.6v7H153.9z"/>
		<path d="M165.2,43.5V0.9h20.3v6.8h-12.4v10.5h8.6v6.3h-8.6v11.8h12.4v7.1H165.2z"/>
		<path d="M206.1,43.5l-5-14.7l-5.4,14.7h-7.7l8.8-21.5l-8.2-21.1h8.3l4.7,14.7l5.1-14.7h7.8l-8.5,20.5l8.6,22.1H206.1z"/>
		<path d="M233.8,43.5l-1.4-8.4h-7.5l-1.5,8.4h-7.4l8.6-42.6h8.9l8.5,42.6H233.8z M228.8,12.4L226,28.8h5.4L228.8,12.4z"/>
		<path d="M254.7,44.4c-7.3,0-11.8-4.3-11.8-11v-2.9h7.3V33c0,3.1,1.5,4.9,4.3,4.9c2.8,0,4.2-1.7,4.2-4.3c0-3.4-2.2-5.7-6.4-8.8
			c-4.3-3.1-9.1-7.4-9.1-13.3c0-6.1,4-11.4,11.6-11.4c6.7,0,11.2,4.6,11.2,10.9v2.7h-7.2v-2.6c0-2.6-1.3-4.5-4-4.5
			c-2.3,0-3.8,1.5-3.8,3.8c0,3.6,2.1,5.4,6.8,8.9c5.1,3.8,8.6,7.6,8.6,13.4C266.5,39.5,261.8,44.4,254.7,44.4z"/>
		<path d="M292.8,7.9v35.5h-8V7.9H277v-7h23.7v7H292.8z"/>
		<path d="M323.6,43.7c-3.1,0-4.3-2.6-4.3-6.3v-8c0-2-1-3.6-3.3-3.6h-4.2v17.6h-7.9V0.9H317c5.8,0,9.7,3.3,9.7,9.3v6
			c0,3.2-1.5,5.6-4.8,6.6c3.3,0.9,4.9,3.7,4.9,6.5V37c0,2,0.6,3.3,1.5,4.3v2.4H323.6z M319,10.5c0-1.9-0.8-3.1-2.8-3.1h-4.3v12.5h4
			c2,0,3.1-1.1,3.1-3.4V10.5z"/>
		<path d="M333.1,43.5V0.9h7.9v42.6H333.1z"/>
		<path d="M360.8,43.5h-13.4V0.9h13.3c5.8,0,9.4,3.1,9.4,9v4.6c0,3.6-1.4,6.4-5,7.2c3.8,1,5.2,3.6,5.2,7.2v5.6
			C370.3,40.4,366.7,43.5,360.8,43.5z M362.5,10.5c0-1.9-0.8-3.1-2.8-3.1h-4.3v11.7h4c2,0,3.1-1.1,3.1-3.3V10.5z M362.6,28.3
			c0-2.2-1.1-3.4-3.1-3.4h-4.1v12h4.5c2,0,2.7-1.1,2.7-3.1V28.3z"/>
		<path d="M387,44.4c-6.9,0-12-4.4-12-10.8V0.9h8.1v32.7c0,2.5,1.4,3.9,4,3.9c2.6,0,4-1.4,4-3.9V0.9h7.7v32.7
			C398.8,40,393.9,44.4,387,44.4z"/>
		<path d="M422.1,43.5l-8.2-18.2l-3-6.8v24.9h-7.3V0.9h6.8l7.9,18.5l2.8,6.8V0.9h7.2v42.6H422.1z"/>
		<path d="M433.6,43.5V0.9h20.3v6.8h-12.4v10.5h8.6v6.3h-8.6v11.8h12.4v7.1H433.6z"/>
	</g>
	<path fill="#FFC200" d="M0,0.5V50l10-6.2h33.3V0.5H0z M31,35.1l-9.5-6.2L12,35.1l3-10.9L6.2,17l11.3-0.5l4-10.6l4,10.6L36.9,17
		L28,24.1L31,35.1z"/>
</g>
</svg>
